# xmcd CD database file
#
# Track frame offsets:
#	150
#	27900
#	49100
#	71520
#	96720
#	132322
#	161105
#	186967
#	223580
#	256217
#	284132
#
# Disc length: 4414 seconds
#
# Revision: 1
# Processed by: cddbd v1.4PL0 Copyright (c) Steve Scherf et al.
# Submitted via: CDex 1.50beta10
#
DISCID=b0113c0b
DTITLE=Miki Kono - For my mother
DYEAR=1900
DGENRE=Jazz
TTITLE0=For my mother
TTITLE1=Everything is gonna be alright
TTITLE2=Jet Lag
TTITLE3=That's life
TTITLE4=Song of Michael
TTITLE5=I belong to you
TTITLE6=Mind Control
TTITLE7=Waltz for Debby
TTITLE8=With broken heart
TTITLE9=Daydream
TTITLE10=Melancholy
EXTD=
EXTT0=
EXTT1=
EXTT2=
EXTT3=
EXTT4=
EXTT5=
EXTT6=
EXTT7=
EXTT8=
EXTT9=
EXTT10=
PLAYORDER=
